<svg xmlns="http://www.w3.org/2000/svg" width="30.845" height="30.846" viewBox="0 0 30.845 30.846">
  <g id="linked_In" data-name="linked In" transform="translate(0 0)">
    <path id="Path_7" data-name="Path 7" d="M703.34,217.827A15.423,15.423,0,1,1,687.918,202.4a15.423,15.423,0,0,1,15.423,15.423" transform="translate(-672.495 -202.404)" fill="#4467ad"/>
    <path id="Path_8" data-name="Path 8" d="M732.959,254.132c.253-.285.462-.574.722-.819a3.962,3.962,0,0,1,2.85-1.125,6.6,6.6,0,0,1,1.793.218,3.5,3.5,0,0,1,2.488,2.616,10.964,10.964,0,0,1,.331,3c0,2.131-.006,4.261,0,6.391,0,.2-.056.252-.252.25q-1.646-.013-3.293,0c-.193,0-.235-.058-.234-.241q.009-3.041,0-6.082a5.472,5.472,0,0,0-.177-1.51,1.7,1.7,0,0,0-1.867-1.323,2.041,2.041,0,0,0-2.144,2.037,7.622,7.622,0,0,0-.058.951c0,1.972,0,3.943.005,5.915,0,.2-.048.254-.249.253q-1.659-.015-3.317,0c-.177,0-.229-.046-.228-.226q.008-5.855,0-11.71c0-.193.063-.238.246-.237q1.575.012,3.15,0c.193,0,.243.061.239.244-.011.466,0,.933,0,1.4" transform="translate(-716.343 -240.813)" fill="#fefefe"/>
    <path id="Path_9" data-name="Path 9" d="M706.1,259.6c0,1.931,0,3.862,0,5.793,0,.215-.053.279-.275.277-1.1-.012-2.194-.009-3.292,0-.176,0-.229-.043-.228-.224q.008-5.865,0-11.73c0-.162.039-.219.211-.218,1.113.007,2.226.009,3.339,0,.214,0,.243.081.243.264-.006,1.947,0,3.894,0,5.841" transform="translate(-695.498 -241.825)" fill="#fefefe"/>
    <path id="Path_10" data-name="Path 10" d="M705.422,229.185a2.192,2.192,0,1,1-2.188-2.18,2.2,2.2,0,0,1,2.188,2.18" transform="translate(-694.517 -221.384)" fill="#fefefe"/>
  </g>
</svg>
